<?xml version="1.0" encoding="utf-8"?>
<!-- Generator: Adobe Illustrator 19.0.0, SVG Export Plug-In . SVG Version: 6.00 Build 0)  -->
<svg version="1.1" id="Layer_2" xmlns="http://www.w3.org/2000/svg" xmlns:xlink="http://www.w3.org/1999/xlink" x="0px" y="0px"
	 viewBox="-349 351 300 300" style="enable-background:new -349 351 300 300;" xml:space="preserve">
<style type="text/css">
	.st0{fill:#FFFFFF;stroke:#000000;stroke-width:7;stroke-miterlimit:10;}
	.st1{stroke:#000000;stroke-width:4;stroke-miterlimit:10;}
</style>
<circle id="XMLID_125_" class="st0" cx="-201.1" cy="508.3" r="140.5"/>
<g id="XMLID_1_">
	<g id="XMLID_12_">
		<g id="XMLID_45_">
			<path id="XMLID_121_" class="st1" d="M-205.1,439.8L-205.1,439.8c-1.4-0.2-2.3-1.5-2.1-2.8l1-7.3c0.2-1.4,1.5-2.3,2.8-2.1l0,0
				c1.4,0.2,2.3,1.5,2.1,2.8l-1,7.3C-202.4,439-203.7,440-205.1,439.8z"/>
			<path id="XMLID_122_" class="st1" d="M-204.7,440.3c-0.1,0-0.3,0-0.4,0c-0.8-0.1-1.5-0.5-2-1.2c-0.5-0.6-0.7-1.4-0.6-2.2l1-7.3
				c0.1-0.8,0.5-1.5,1.2-2c0.6-0.5,1.4-0.7,2.2-0.6c0.8,0.1,1.5,0.5,2,1.2c0.5,0.6,0.7,1.4,0.6,2.2l-1,7.3c-0.1,0.8-0.5,1.5-1.2,2
				C-203.4,440.1-204.1,440.3-204.7,440.3z M-203.7,428c-0.4,0-0.8,0.1-1.2,0.4c-0.4,0.3-0.7,0.8-0.8,1.3l-1,7.3
				c-0.1,0.5,0.1,1.1,0.4,1.5c0.3,0.4,0.8,0.7,1.3,0.8s1.1-0.1,1.5-0.4c0.4-0.3,0.7-0.8,0.8-1.3l1-7.3c0.1-0.5-0.1-1.1-0.4-1.5
				c-0.3-0.4-0.8-0.7-1.3-0.8C-203.5,428-203.6,428-203.7,428z"/>
		</g>
	</g>
	<g id="XMLID_23_">
		<g id="XMLID_24_">
			<g id="XMLID_44_">
				<path id="XMLID_117_" class="st1" d="M-257.4,600.6c-26.8-15.7-43.5-44.7-43.5-75.7c0-48.3,39.3-87.6,87.6-87.6
					s87.6,39.3,87.6,87.6c0,31-16.6,60-43.4,75.7l-2.5-4.3c25.3-14.8,41-42.1,41-71.4c0-45.5-37-82.6-82.6-82.6
					s-82.6,37.1-82.6,82.6c0,29.3,15.7,56.6,41,71.4L-257.4,600.6z"/>
				<path id="XMLID_118_" class="st1" d="M-257.2,601.3l-0.4-0.3c-27-15.8-43.7-44.9-43.7-76.1c0-48.6,39.5-88.1,88.1-88.1
					s88.1,39.5,88.1,88.1c0,31.2-16.7,60.4-43.7,76.1l-0.4,0.3l-3-5.2l0.4-0.3c25.1-14.7,40.7-41.9,40.7-70.9
					c0-45.3-36.8-82.1-82.1-82.1s-82.1,36.8-82.1,82.1c0,29.1,15.6,56.3,40.7,71l0.4,0.3L-257.2,601.3z M-213.3,437.8
					c-48,0-87.1,39.1-87.1,87.1c0,30.7,16.4,59.4,42.8,75l2-3.5c-25.2-14.9-40.8-42.3-40.8-71.6c0-45.8,37.3-83.1,83.1-83.1
					s83.1,37.3,83.1,83.1c0,29.3-15.6,56.6-40.8,71.6l2,3.5c26.4-15.6,42.8-44.3,42.8-75C-126.3,476.9-165.3,437.8-213.3,437.8z"/>
			</g>
		</g>
		<g id="XMLID_3_">
			<g id="XMLID_43_">
				<path id="XMLID_113_" class="st1" d="M-130.7,492.6c-1.8,0-3.5-0.1-5.3-0.3l0.6-5c1.5,0.2,3.1,0.3,4.6,0.3
					c18.1,0,32.9-13.6,32.9-30.4c0-16.8-14.7-30.4-32.9-30.4c-16.9,0-31,11.7-32.7,27.3l-5-0.5c2-18.1,18.2-31.7,37.7-31.7
					c20.9,0,37.9,15.9,37.9,35.4S-109.8,492.6-130.7,492.6z"/>
				<path id="XMLID_114_" class="st1" d="M-130.7,493.1c-1.8,0-3.6-0.1-5.4-0.3l-0.5-0.1l0.8-5.9l0.5,0.1c1.5,0.2,3,0.3,4.6,0.3
					c17.9,0,32.4-13.4,32.4-29.9s-14.5-29.9-32.4-29.9c-16.7,0-30.5,11.5-32.2,26.8l-0.1,0.5l-6-0.7l0.1-0.5
					c2-18.3,18.4-32.2,38.2-32.2c21.2,0,38.4,16.1,38.4,35.9C-92.3,477-109.5,493.1-130.7,493.1z M-135.4,491.8
					c1.6,0.2,3.1,0.3,4.7,0.3c20.6,0,37.4-15.6,37.4-34.9c0-19.3-16.8-34.9-37.4-34.9c-19.1,0-34.9,13.2-37.1,30.8l4,0.4
					c2-15.6,16.1-27.2,33.1-27.2c18.4,0,33.4,13.8,33.4,30.9c0,17.1-15,30.9-33.4,30.9c-1.4,0-2.8-0.1-4.2-0.2L-135.4,491.8z"/>
			</g>
		</g>
		<g id="XMLID_4_">
			<g id="XMLID_42_">
				<path id="XMLID_109_" class="st1" d="M-297.6,498.8c-11.9,0-21.6-9.2-21.6-20.5c0-11.3,9.7-20.5,21.6-20.5
					c8.9,0,16.8,5.1,20.1,12.9l-4.6,1.9c-2.5-6-8.6-9.9-15.5-9.9c-9.2,0-16.6,6.9-16.6,15.5c0,8.5,7.4,15.5,16.6,15.5
					c1.1,0,2.3-0.1,3.4-0.3l0.9,4.9C-294.7,498.7-296.1,498.8-297.6,498.8z"/>
				<path id="XMLID_110_" class="st1" d="M-297.6,499.3c-12.2,0-22.1-9.4-22.1-21c0-11.6,9.9-21,22.1-21c9.1,0,17.2,5.2,20.6,13.3
					l0.2,0.5l-5.5,2.3l-0.2-0.5c-2.4-5.8-8.3-9.6-15-9.6c-8.9,0-16.1,6.7-16.1,15c0,8.3,7.2,15,16.1,15c1.1,0,2.2-0.1,3.3-0.3
					l0.5-0.1l1.1,5.9l-0.5,0.1C-294.6,499.2-296.1,499.3-297.6,499.3z M-297.6,458.4c-11.6,0-21.1,9-21.1,20s9.5,20,21.1,20
					c1.3,0,2.5-0.1,3.7-0.3l-0.8-3.9c-1,0.2-2,0.2-3,0.2c-9.4,0-17.1-7.2-17.1-16s7.7-16,17.1-16c6.9,0,13,3.8,15.7,9.7l3.7-1.5
					C-281.5,463.1-289,458.4-297.6,458.4z"/>
			</g>
		</g>
		<g id="XMLID_5_">
			<g id="XMLID_41_">
				<path id="XMLID_126_" class="st1" d="M-170.5,598.4"/>
			</g>
		</g>
		<g id="XMLID_6_">
			<g id="XMLID_40_">
				<polygon id="XMLID_105_" class="st1" points="-257.4,600.6 -257.5,595.7 -168,595.4 -169.2,600.6 				"/>
				<path id="XMLID_106_" class="st1" d="M-257.9,601.1l-0.1-5.9l90.6-0.3l-1.4,6.2H-257.9z M-257,596.2v3.9h87.3l0.9-4.2
					L-257,596.2z"/>
			</g>
		</g>
		<g id="XMLID_7_">
			<g id="XMLID_39_">
				<path id="XMLID_101_" class="st1" d="M-237.4,599L-237.4,599c0-0.4-0.2-0.7-0.6-0.9l0,0c-1-0.5-2.2,0.7-1.5,1.6l0,0
					c-0.1-0.1-0.2-0.2-0.3-0.4c-7.8-10-32.3-46.7-19.1-99.8c0.2-0.6,0.8-1,1.4-0.8l2.6,0.7c0.6,0.2,1,0.8,0.8,1.4
					c-12.6,50.9,10.7,85.9,18.2,95.5c0.6,0.7,1.3,1.7,0.8,2.9c-0.1,0.2-0.2,0.4-0.4,0.5l-0.4,0.2
					C-236.5,600.3-237.4,599.8-237.4,599z"/>
				<path id="XMLID_102_" class="st1" d="M-236.3,600.6c-0.3,0-0.5-0.1-0.7-0.2c-0.5-0.3-0.8-0.8-0.8-1.3c0-0.2-0.1-0.4-0.3-0.5
					c-0.4-0.2-0.7,0-0.8,0.2c-0.1,0.1-0.3,0.4-0.1,0.7l0,0l0,0l-0.8,0.6c0-0.1-0.1-0.2-0.2-0.3l-0.1-0.1
					c-7.8-10-32.4-46.9-19.2-100.2c0.1-0.4,0.4-0.8,0.8-1s0.8-0.3,1.3-0.2l2.6,0.7c0.9,0.2,1.4,1.1,1.2,2
					c-12.6,50.7,10.7,85.6,18.1,95.1c0.6,0.7,1.5,1.9,0.9,3.4c-0.1,0.3-0.3,0.6-0.6,0.7l-0.4,0.2
					C-235.8,600.5-236,600.6-236.3,600.6z M-238.5,597.5c0.3,0,0.5,0.1,0.8,0.2c0.5,0.3,0.8,0.8,0.8,1.4c0,0.3,0.2,0.4,0.3,0.5
					c0.1,0,0.3,0.1,0.5,0l0.4-0.2c0.1-0.1,0.2-0.1,0.2-0.2c0.4-1-0.2-1.8-0.8-2.4c-7.5-9.6-31-44.8-18.3-95.9
					c0.1-0.4-0.1-0.7-0.5-0.8l-2.6-0.7c-0.2,0-0.4,0-0.5,0.1c-0.2,0.1-0.3,0.2-0.3,0.4c-12.8,51.7,10.1,87.8,18.5,98.6
					c0.1-0.1,0.1-0.2,0.2-0.2C-239.4,597.7-238.9,597.5-238.5,597.5z"/>
			</g>
		</g>
		<g id="XMLID_9_">
			<g id="XMLID_38_">
				<path id="XMLID_97_" class="st1" d="M-213.3,598.4L-213.3,598.4c-1.4,0-2.5-1.1-2.5-2.5v-75.8c0-1.4,1.1-2.5,2.5-2.5l0,0
					c1.4,0,2.5,1.1,2.5,2.5v75.8C-210.8,597.3-211.9,598.4-213.3,598.4z"/>
				<path id="XMLID_98_" class="st1" d="M-213.3,598.9c-1.7,0-3-1.3-3-3v-75.8c0-1.7,1.3-3,3-3s3,1.3,3,3v75.8
					C-210.3,597.6-211.7,598.9-213.3,598.9z M-213.3,518.1c-1.1,0-2,0.9-2,2v75.8c0,1.1,0.9,2,2,2s2-0.9,2-2v-75.8
					C-211.3,519-212.2,518.1-213.3,518.1z"/>
			</g>
		</g>
		<g id="XMLID_10_">
			<g id="XMLID_37_">
				<path id="XMLID_93_" class="st1" d="M-188.2,598.2c-1,1.1-2.6,1.1-3.6,0.1l-1.7-1.7l1.8,1.8l-0.1-0.1c-0.9-0.9-1-2.4-0.1-3.4
					c3.1-3.6,10.3-12.5,16-25.5c9.7-21.9,10.9-44.5,3.8-67.2c-0.4-1.3,0.3-2.7,1.6-3.1l0,0c1.3-0.5,2.8,0.3,3.2,1.6
					c9.3,29.8,3,55-4.1,70.9C-177.4,585.2-184.8,594.4-188.2,598.2z"/>
				<path id="XMLID_94_" class="st1" d="M-190,599.6c-0.8,0-1.5-0.3-2.1-0.8l0,0l-0.1-0.1l0,0l-1.7-1.7l0.7-0.7l0.1,0.1
					c0-0.6,0.3-1.3,0.7-1.8c2.9-3.3,10.2-12.3,15.9-25.4c9.6-21.8,10.9-44.3,3.8-66.9c-0.5-1.6,0.3-3.2,1.9-3.8
					c0.8-0.3,1.6-0.2,2.3,0.2s1.3,1,1.5,1.8c9.4,30.1,2.9,55.4-4.1,71.3c-5.9,13.3-13.1,22.5-16.8,26.7l0,0
					C-188.4,599.2-189.1,599.5-190,599.6L-190,599.6z M-191.5,598c0.4,0.4,0.9,0.6,1.5,0.6s1.1-0.3,1.4-0.7l0,0
					c3.7-4.2,10.8-13.2,16.7-26.5c7-15.8,13.4-40.8,4.1-70.6c-0.2-0.5-0.5-1-1-1.2c-0.5-0.2-1-0.3-1.5-0.1c-1,0.4-1.6,1.5-1.3,2.5
					c7.1,22.9,5.8,45.6-3.9,67.6c-5.8,13.2-13.2,22.3-16.1,25.6C-192.3,596-192.2,597.2-191.5,598L-191.5,598z"/>
			</g>
		</g>
		<g id="XMLID_11_">
			<g id="XMLID_36_">
				<path id="XMLID_89_" class="st1" d="M-255.7,448.3l-3.1-5.1c-0.7-1.2-0.3-2.7,0.9-3.4l0,0c1.2-0.7,2.7-0.3,3.4,0.9l3.1,5.1
					c0.7,1.2,0.3,2.7-0.9,3.4l0,0C-253.4,449.9-255,449.5-255.7,448.3z"/>
				<path id="XMLID_90_" class="st1" d="M-253.5,450.1c-0.2,0-0.5,0-0.7-0.1c-0.8-0.2-1.4-0.7-1.8-1.4l-3.1-5.1
					c-0.4-0.7-0.5-1.5-0.3-2.3c0.2-0.8,0.7-1.4,1.4-1.8s1.5-0.5,2.3-0.3c0.8,0.2,1.4,0.7,1.8,1.4l3.1,5.1c0.4,0.7,0.5,1.5,0.3,2.3
					c-0.2,0.8-0.7,1.4-1.4,1.8C-252.4,449.9-253,450.1-253.5,450.1z M-256.6,439.9c-0.3,0-0.7,0.1-1,0.3c-0.9,0.6-1.3,1.8-0.7,2.7
					l3.1,5.1c0.6,0.9,1.8,1.3,2.7,0.7c0.9-0.6,1.3-1.8,0.7-2.7l-3.1-5.1C-255.2,440.3-255.9,439.9-256.6,439.9z"/>
			</g>
		</g>
		<g id="XMLID_13_">
			<g id="XMLID_35_">
				<path id="XMLID_85_" class="st1" d="M-152,465.7L-152,465.7c-1.5-0.1-2.5-1.5-2.2-3c0.8-3.6,2.7-10.2,7.6-15.5
					c1-1.1,2.8-1.1,3.8,0.1l0,0c0.8,1,0.8,2.4-0.1,3.4c-4,4.4-5.7,10-6.3,13C-149.6,465-150.8,465.8-152,465.7z"/>
				<path id="XMLID_86_" class="st1" d="M-151.8,466.2c-0.1,0-0.2,0-0.3,0l0,0c-0.9-0.1-1.6-0.5-2.1-1.2s-0.7-1.5-0.5-2.4
					c0.7-3.6,2.7-10.3,7.7-15.7c0.6-0.6,1.4-1,2.3-1c0.9,0,1.7,0.4,2.2,1c1,1.2,0.9,2.9-0.1,4c-3.9,4.3-5.6,9.9-6.2,12.8
					C-149.2,465.2-150.4,466.2-151.8,466.2z M-144.8,447c-0.6,0-1.1,0.2-1.5,0.7c-4.8,5.2-6.7,11.8-7.5,15.2c-0.1,0.6,0,1.1,0.3,1.6
					s0.9,0.8,1.4,0.8v0.5v-0.5c1,0.1,1.9-0.6,2.1-1.6c0.6-3,2.3-8.8,6.4-13.3c0.7-0.8,0.8-1.9,0.1-2.7
					C-143.7,447.2-144.2,447-144.8,447L-144.8,447z"/>
			</g>
		</g>
		<g id="XMLID_14_">
			<g id="XMLID_34_">
				<path id="XMLID_81_" class="st1" d="M-142.1,478.2L-142.1,478.2c-0.2-1.3,0.7-2.5,2-2.8c2.8-0.6,7.7-1.9,11.9-4.3
					c1.1-0.7,2.6-0.4,3.3,0.7l0,0c0.9,1.2,0.5,2.9-0.7,3.6c-4.8,2.8-10.3,4.2-13.5,4.9C-140.6,480.7-141.9,479.7-142.1,478.2z"/>
				<path id="XMLID_82_" class="st1" d="M-139.7,480.9c-0.6,0-1.2-0.2-1.7-0.6c-0.7-0.5-1.1-1.2-1.2-2.1v-0.1
					c-0.2-1.5,0.8-2.9,2.4-3.3c2.6-0.5,7.6-1.8,11.8-4.2c1.4-0.8,3.1-0.4,4,0.8c0.5,0.7,0.7,1.6,0.5,2.4c-0.2,0.8-0.7,1.5-1.4,1.9
					c-5,2.9-10.7,4.3-13.6,5C-139.3,480.9-139.5,480.9-139.7,480.9z M-141.6,478.2c0.1,0.6,0.4,1,0.8,1.4c0.5,0.3,1,0.4,1.5,0.3
					c2.9-0.6,8.5-2,13.3-4.8c0.5-0.3,0.8-0.7,0.9-1.3c0.1-0.6,0-1.1-0.3-1.6c-0.6-0.8-1.8-1.1-2.7-0.5c-4.3,2.5-9.4,3.8-12.1,4.3
					C-141.1,476.2-141.8,477.1-141.6,478.2l-0.5,0.1L-141.6,478.2z"/>
			</g>
		</g>
		<g id="XMLID_8_">
			<g id="XMLID_33_">
				<path id="XMLID_77_" class="st1" d="M-300.9,527.4h-6.3c-1.4,0-2.5-1.1-2.5-2.5l0,0c0-1.4,1.1-2.5,2.5-2.5h6.3
					c1.4,0,2.5,1.1,2.5,2.5l0,0C-298.4,526.3-299.5,527.4-300.9,527.4z"/>
				<path id="XMLID_78_" class="st1" d="M-300.9,527.9h-6.3c-1.7,0-3-1.3-3-3c0-1.7,1.3-3,3-3h6.3c1.7,0,3,1.3,3,3
					C-297.9,526.6-299.2,527.9-300.9,527.9z M-307.2,522.9c-1.1,0-2,0.9-2,2c0,1.1,0.9,2,2,2h6.3c1.1,0,2-0.9,2-2c0-1.1-0.9-2-2-2
					H-307.2z"/>
			</g>
		</g>
		<g id="XMLID_15_">
			<g id="XMLID_32_">
				<path id="XMLID_73_" class="st1" d="M-313.2,464.4l-3.5-3.6c-1-1-0.9-2.6,0-3.5l0,0c1-1,2.6-0.9,3.5,0l3.5,3.6
					c1,1,0.9,2.6,0,3.5l0,0C-310.6,465.4-312.2,465.4-313.2,464.4z"/>
				<path id="XMLID_74_" class="st1" d="M-311.4,465.6L-311.4,465.6c-0.8,0-1.6-0.3-2.2-0.9l-3.5-3.6c-1.2-1.2-1.1-3.1,0.1-4.2
					c0.6-0.6,1.3-0.9,2.1-0.8c0.8,0,1.5,0.3,2.1,0.9l3.5,3.6c1.2,1.2,1.1,3.1-0.1,4.2C-309.9,465.3-310.6,465.6-311.4,465.6z
					 M-314.9,457c-0.5,0-1,0.2-1.4,0.6c-0.8,0.8-0.8,2,0,2.8l3.5,3.6c0.8,0.8,2,0.8,2.8,0s0.8-2,0-2.8l-3.5-3.6
					C-313.9,457.2-314.4,457-314.9,457z"/>
			</g>
		</g>
		<g id="XMLID_16_">
			<g id="XMLID_31_">
				<path id="XMLID_69_" class="st1" d="M-297.6,571.7L-297.6,571.7c-0.6-1.3,0-2.7,1.3-3.3l5.9-2.5c1.3-0.6,2.7,0,3.3,1.3l0,0
					c0.6,1.3,0,2.7-1.3,3.3l-5.9,2.5C-295.5,573.6-297,573-297.6,571.7z"/>
				<path id="XMLID_70_" class="st1" d="M-295.3,573.7c-0.4,0-0.7-0.1-1.1-0.2c-0.7-0.3-1.3-0.9-1.7-1.6c-0.7-1.5,0-3.3,1.6-3.9
					l5.9-2.5c0.7-0.3,1.5-0.3,2.3,0c0.7,0.3,1.3,0.9,1.7,1.6c0.7,1.5,0,3.3-1.6,3.9l-5.9,2.5C-294.5,573.6-294.9,573.7-295.3,573.7z
					 M-289.4,566.2c-0.3,0-0.5,0.1-0.8,0.2l-5.9,2.5c-1,0.4-1.5,1.6-1,2.6c0.4,1,1.6,1.5,2.6,1l5.9-2.5c1-0.4,1.5-1.6,1-2.6
					c-0.2-0.5-0.6-0.9-1.1-1.1C-288.9,566.2-289.2,566.2-289.4,566.2z"/>
			</g>
		</g>
		<g id="XMLID_17_">
			<g id="XMLID_30_">
				<path id="XMLID_65_" class="st1" d="M-134,575.6l-5.7-2.8c-1.2-0.6-1.8-2.1-1.1-3.3l0,0c0.6-1.2,2.1-1.8,3.3-1.1l5.7,2.8
					c1.2,0.6,1.8,2.1,1.1,3.3l0,0C-131.3,575.7-132.8,576.2-134,575.6z"/>
				<path id="XMLID_66_" class="st1" d="M-132.9,576.3c-0.5,0-0.9-0.1-1.3-0.3l-5.7-2.8c-0.7-0.4-1.3-1-1.5-1.7s-0.2-1.6,0.1-2.3
					s1-1.3,1.7-1.5c0.8-0.3,1.6-0.2,2.3,0.1l5.7,2.8c0.7,0.4,1.3,1,1.5,1.7s0.2,1.6-0.1,2.3c-0.3,0.7-1,1.3-1.7,1.5
					C-132.3,576.3-132.6,576.3-132.9,576.3z M-133.8,575.1c0.5,0.2,1,0.3,1.5,0.1s0.9-0.5,1.1-1c0.5-1,0.1-2.2-0.9-2.7l-5.7-2.8
					c-0.5-0.2-1-0.3-1.5-0.1c-0.5,0.2-0.9,0.5-1.1,1s-0.3,1-0.1,1.5s0.5,0.9,1,1.1L-133.8,575.1z"/>
			</g>
		</g>
		<g id="XMLID_18_">
			<g id="XMLID_29_">
				<path id="XMLID_61_" class="st1" d="M-120,527.4h-5.7c-1.4,0-2.5-1.1-2.5-2.5l0,0c0-1.4,1.1-2.5,2.5-2.5h5.7
					c1.4,0,2.5,1.1,2.5,2.5l0,0C-117.5,526.3-118.6,527.4-120,527.4z"/>
				<path id="XMLID_62_" class="st1" d="M-120,527.9h-5.7c-1.7,0-3-1.3-3-3c0-1.7,1.3-3,3-3h5.7c1.7,0,3,1.3,3,3
					C-117,526.6-118.4,527.9-120,527.9z M-125.8,522.9c-1.1,0-2,0.9-2,2c0,1.1,0.9,2,2,2h5.7c1.1,0,2-0.9,2-2c0-1.1-0.9-2-2-2
					H-125.8z"/>
			</g>
		</g>
		<g id="XMLID_19_">
			<g id="XMLID_28_">
				<path id="XMLID_57_" class="st1" d="M-110.2,495.7l-4.2-6.1c-0.8-1.1-0.5-2.7,0.6-3.5l0,0c1.1-0.8,2.7-0.5,3.5,0.6l4.2,6.1
					c0.8,1.1,0.5,2.7-0.6,3.5l0,0C-107.8,497.1-109.4,496.8-110.2,495.7z"/>
				<path id="XMLID_58_" class="st1" d="M-108.1,497.3c-0.2,0-0.4,0-0.5,0c-0.8-0.1-1.5-0.6-1.9-1.2l-4.2-6.1
					c-0.9-1.4-0.6-3.2,0.8-4.2c0.7-0.5,1.5-0.6,2.2-0.5c0.8,0.1,1.5,0.6,1.9,1.2l4.2,6.1c0.9,1.4,0.6,3.2-0.8,4.2
					C-106.9,497.1-107.5,497.3-108.1,497.3z M-112.3,486.2c-0.4,0-0.8,0.1-1.1,0.4c-0.9,0.6-1.1,1.9-0.5,2.8l4.2,6.1
					c0.3,0.4,0.8,0.7,1.3,0.8c0.5,0.1,1.1,0,1.5-0.3c0.9-0.6,1.1-1.9,0.5-2.8l-4.2-6.1c-0.3-0.4-0.8-0.7-1.3-0.8
					C-112.1,486.2-112.2,486.2-112.3,486.2z"/>
			</g>
		</g>
		<g id="XMLID_20_">
			<g id="XMLID_27_">
				<path id="XMLID_53_" class="st1" d="M-95.3,457.2L-95.3,457.2c-0.1-1.4,1-2.6,2.3-2.7l7.2-0.5c1.4-0.1,2.6,1,2.7,2.3l0,0
					c0.1,1.4-1,2.6-2.3,2.7l-7.2,0.5C-94,459.7-95.2,458.6-95.3,457.2z"/>
				<path id="XMLID_54_" class="st1" d="M-92.8,460.1c-1.6,0-2.9-1.2-3-2.8l0,0c-0.1-0.8,0.2-1.6,0.7-2.2s1.3-1,2.1-1l7.2-0.5
					c1.7-0.1,3.1,1.2,3.2,2.8c0.1,0.8-0.2,1.6-0.7,2.2s-1.3,1-2.1,1l-7.2,0.5C-92.7,460.1-92.7,460.1-92.8,460.1z M-94.8,457.2
					c0.1,1.1,1,1.9,2.1,1.9l7.2-0.5c0.5,0,1-0.3,1.4-0.7s0.5-0.9,0.5-1.4c-0.1-1.1-1-1.9-2.1-1.9l-7.2,0.5c-0.5,0-1,0.3-1.4,0.7
					C-94.7,456.2-94.8,456.7-94.8,457.2L-94.8,457.2z"/>
			</g>
		</g>
	</g>
	<g id="XMLID_21_">
		<g id="XMLID_26_">
			<path id="XMLID_49_" class="st1" d="M-113.8,427.5L-113.8,427.5c-1.1-0.9-1.2-2.4-0.4-3.5l5.9-7.3c0.9-1.1,2.4-1.3,3.5-0.4l0,0
				c1.1,0.9,1.2,2.4,0.4,3.5l-5.9,7.3C-111.1,428.2-112.7,428.4-113.8,427.5z"/>
			<path id="XMLID_50_" class="st1" d="M-112.2,428.6c-0.7,0-1.3-0.2-1.9-0.7c-1.3-1-1.5-2.9-0.5-4.2l5.9-7.3c0.5-0.6,1.2-1,2-1.1
				c0.8-0.1,1.6,0.1,2.2,0.6c1.3,1,1.5,2.9,0.5,4.2l-5.9,7.3c-0.5,0.6-1.2,1-2,1.1C-112,428.6-112.1,428.6-112.2,428.6z
				 M-106.3,416.3c-0.1,0-0.1,0-0.2,0c-0.5,0.1-1,0.3-1.3,0.7l-5.9,7.3c-0.7,0.9-0.6,2.1,0.3,2.8c0.4,0.3,0.9,0.5,1.5,0.4
				c0.5-0.1,1-0.3,1.3-0.7l5.9-7.3c0.7-0.9,0.6-2.1-0.3-2.8C-105.4,416.4-105.9,416.3-106.3,416.3z"/>
		</g>
	</g>
	<g id="XMLID_22_">
		<g id="XMLID_25_">
			<path id="XMLID_2_" class="st1" d="M-150.9,426.9l-2.8-7.4c-0.5-1.3,0.2-2.7,1.4-3.2l0,0c1.3-0.5,2.7,0.2,3.2,1.4l2.8,7.4
				c0.5,1.3-0.2,2.7-1.4,3.2l0,0C-148.9,428.9-150.4,428.2-150.9,426.9z"/>
			<path id="XMLID_46_" class="st1" d="M-148.5,429.1c-1.2,0-2.4-0.7-2.8-1.9l-2.8-7.4c-0.3-0.7-0.3-1.6,0.1-2.3s0.9-1.3,1.7-1.6
				c1.5-0.6,3.3,0.2,3.9,1.7l2.8,7.4c0.3,0.7,0.3,1.6-0.1,2.3s-0.9,1.3-1.7,1.6C-147.8,429-148.2,429.1-148.5,429.1z M-150.4,426.8
				c0.4,1,1.5,1.6,2.6,1.2c0.5-0.2,0.9-0.6,1.1-1.1s0.2-1,0-1.5l-2.8-7.4c-0.4-1-1.6-1.5-2.6-1.2c-0.5,0.2-0.9,0.6-1.1,1.1
				s-0.2,1,0,1.5L-150.4,426.8z"/>
		</g>
	</g>
</g>
</svg>
