<?xml version="1.0" encoding="utf-8"?>
<!-- Generator: Adobe Illustrator 19.0.0, SVG Export Plug-In . SVG Version: 6.00 Build 0)  -->
<svg version="1.1" id="Layer_1" xmlns="http://www.w3.org/2000/svg" xmlns:xlink="http://www.w3.org/1999/xlink" x="0px" y="0px"
	 viewBox="0 0 1000 1000" style="enable-background:new 0 0 1000 1000;" xml:space="preserve">
<style type="text/css">
	.st0{fill:#FFFFFF;}
	.st1{fill:#333333;}
	.st2{fill:#323232;}
	.st3{fill:#313131;}
	.st4{fill:#303030;}
	.st5{fill:#2F2F2F;}
	.st6{fill:#2E2E2E;}
	.st7{fill:#2D2D2D;}
	.st8{fill:#2C2C2C;}
	.st9{fill:#2B2B2B;}
	.st10{fill:#2A2A2A;}
	.st11{fill:#292929;}
	.st12{fill:#282828;}
	.st13{fill:#272727;}
	.st14{fill:#262626;}
	.st15{fill:#252525;}
	.st16{fill:#242424;}
	.st17{fill:#232323;}
	.st18{fill:#222222;}
	.st19{fill:#212121;}
	.st20{fill:#202020;}
	.st21{fill:#1F1F1F;}
	.st22{fill:#1E1E1E;}
	.st23{fill:#1D1D1D;}
	.st24{fill:#1C1C1C;}
	.st25{fill:#1B1B1B;}
	.st26{fill:#1A1A1A;}
	.st27{fill:#191919;}
	.st28{fill:#181818;}
	.st29{fill:#171717;}
	.st30{fill:#161616;}
	.st31{fill:#151515;}
	.st32{fill:#141414;}
	.st33{fill:#131313;}
	.st34{fill:#121212;}
	.st35{fill:#111111;}
	.st36{fill:#101010;}
	.st37{fill:#0F0F0F;}
	.st38{fill:#0E0E0E;}
	.st39{fill:#0D0D0D;}
	.st40{fill:#0C0C0C;}
	.st41{fill:#0B0B0B;}
	.st42{fill:#0A0A0A;}
	.st43{fill:#090909;}
	.st44{fill:#080808;}
	.st45{fill:#070707;}
	.st46{fill:#060606;}
	.st47{fill:#050505;}
	.st48{fill:#040404;}
	.st49{fill:#030303;}
	.st50{fill:#020202;}
	.st51{fill:#010101;}
</style>
<circle class="st0" cx="498.6" cy="497.2" r="412"/>
<g id="XMLID_1_">
	<g id="XMLID_1278_">
		<g id="XMLID_1907_">
			<g id="XMLID_1908_">
				<path id="XMLID_2062_" class="st1" d="M498.6,215.9c-155,0-281.2,126.1-281.2,281.2c0,155,126.1,281.2,281.2,281.2
					c155,0,281.2-126.1,281.2-281.2C779.8,342.1,653.6,215.9,498.6,215.9z M498.6,814.3c-84.7,0-164.4-33-224.3-92.9
					s-92.9-139.6-92.9-224.3s33-164.4,92.9-224.3s139.6-92.9,224.3-92.9s164.4,33,224.3,92.9c59.9,59.9,92.9,139.6,92.9,224.3
					s-33,164.4-92.9,224.3C663,781.3,583.3,814.3,498.6,814.3z"/>
				<path id="XMLID_2059_" class="st2" d="M498.6,215.7c-155.2,0-281.4,126.2-281.4,281.4s126.2,281.4,281.4,281.4
					S780,652.3,780,497.1S653.8,215.7,498.6,215.7z M498.6,814c-84.7,0-164.2-33-224.1-92.8c-59.9-59.9-92.8-139.4-92.8-224.1
					s33-164.2,92.8-224.1s139.4-92.8,224.1-92.8s164.2,33,224.1,92.8c59.9,59.9,92.8,139.4,92.8,224.1s-33,164.2-92.8,224.1
					C662.8,781.1,583.2,814,498.6,814z"/>
				<path id="XMLID_2056_" class="st3" d="M498.6,215.5C343.3,215.5,217,341.8,217,497.1s126.3,281.6,281.6,281.6
					s281.6-126.3,281.6-281.6S653.9,215.5,498.6,215.5z M498.6,813.8c-84.6,0-164.1-32.9-223.9-92.8
					c-59.8-59.8-92.8-139.3-92.8-223.9s32.9-164.1,92.8-223.9s139.3-92.8,223.9-92.8s164.1,32.9,223.9,92.8
					c59.8,59.8,92.8,139.3,92.8,223.9S782.4,661.2,722.5,721C662.7,780.8,583.2,813.8,498.6,813.8z"/>
				<path id="XMLID_2053_" class="st4" d="M498.6,215.2c-155.4,0-281.9,126.4-281.9,281.9c0,155.4,126.4,281.9,281.9,281.9
					c155.4,0,281.9-126.4,281.9-281.9C780.5,341.7,654,215.2,498.6,215.2z M498.6,813.6c-84.5,0-164-32.9-223.8-92.7
					s-92.7-139.2-92.7-223.8c0-84.5,32.9-164,92.7-223.8s139.2-92.7,223.8-92.7s164,32.9,223.8,92.7s92.7,139.2,92.7,223.8
					c0,84.5-32.9,164-92.7,223.8C662.6,780.6,583.1,813.6,498.6,813.6z"/>
				<path id="XMLID_2050_" class="st5" d="M498.6,215C343,215,216.5,341.5,216.5,497.1s126.6,282.1,282.1,282.1
					c155.6,0,282.1-126.6,282.1-282.1C780.7,341.5,654.1,215,498.6,215z M498.6,813.3c-84.5,0-163.9-32.9-223.6-92.6
					c-59.7-59.7-92.6-139.1-92.6-223.6s32.9-163.9,92.6-223.6s139.1-92.6,223.6-92.6s163.9,32.9,223.6,92.6s92.6,139.1,92.6,223.6
					S781.9,661,722.2,720.7C662.5,780.4,583.1,813.3,498.6,813.3z"/>
				<path id="XMLID_2047_" class="st6" d="M498.6,214.7c-155.7,0-282.3,126.7-282.3,282.3c0,155.7,126.7,282.3,282.3,282.3
					c155.7,0,282.3-126.7,282.3-282.3S654.3,214.7,498.6,214.7z M498.6,813.1c-84.4,0-163.8-32.9-223.4-92.6
					c-59.7-59.7-92.6-139-92.6-223.4s32.9-163.8,92.6-223.4c59.7-59.7,139-92.6,223.4-92.6S662.4,214,722,273.7
					c59.7,59.7,92.6,139,92.6,223.4S781.7,660.9,722,720.5C662.3,780.2,583,813.1,498.6,813.1z"/>
				<path id="XMLID_2044_" class="st7" d="M498.6,214.5C342.8,214.5,216,341.3,216,497.1s126.8,282.6,282.6,282.6
					s282.6-126.8,282.6-282.6S654.4,214.5,498.6,214.5z M498.6,812.8c-84.3,0-163.6-32.8-223.3-92.5
					c-59.6-59.6-92.5-138.9-92.5-223.3c0-84.3,32.8-163.6,92.5-223.3c59.6-59.6,138.9-92.5,223.3-92.5c84.3,0,163.6,32.8,223.3,92.5
					c59.6,59.6,92.5,138.9,92.5,223.3c0,84.3-32.8,163.6-92.5,223.3C662.2,780,582.9,812.8,498.6,812.8z"/>
				<path id="XMLID_2041_" class="st8" d="M498.6,214.3c-155.9,0-282.8,126.9-282.8,282.8s126.9,282.8,282.8,282.8
					S781.4,653,781.4,497.1C781.4,341.1,654.5,214.3,498.6,214.3z M498.6,812.6c-84.3,0-163.5-32.8-223.1-92.4
					c-59.6-59.6-92.4-138.8-92.4-223.1s32.8-163.5,92.4-223.1s138.8-92.4,223.1-92.4s163.5,32.8,223.1,92.4
					c59.6,59.6,92.4,138.8,92.4,223.1s-32.8,163.5-92.4,223.1C662.1,779.8,582.9,812.6,498.6,812.6z"/>
				<path id="XMLID_2038_" class="st9" d="M498.6,214c-156.1,0-283,127-283,283c0,156.1,127,283,283,283c156.1,0,283-127,283-283
					S654.7,214,498.6,214z M498.6,812.4c-84.2,0-163.4-32.8-222.9-92.3s-92.3-138.7-92.3-222.9s32.8-163.4,92.3-222.9
					S414.4,182,498.6,182s163.4,32.8,222.9,92.3s92.3,138.7,92.3,222.9S781,660.6,721.5,720.1C662,779.6,582.8,812.4,498.6,812.4z"
					/>
				<path id="XMLID_2035_" class="st10" d="M498.6,213.8c-156.2,0-283.3,127.1-283.3,283.3s127.1,283.3,283.3,283.3
					s283.3-127.1,283.3-283.3S654.8,213.8,498.6,213.8z M498.6,812.1c-84.2,0-163.3-32.8-222.8-92.3S183.5,581.2,183.5,497
					s32.8-163.3,92.3-222.8s138.6-92.3,222.8-92.3s163.3,32.8,222.8,92.3s92.3,138.6,92.3,222.8s-32.8,163.3-92.3,222.8
					C661.9,779.4,582.7,812.1,498.6,812.1z"/>
				<path id="XMLID_2032_" class="st11" d="M498.6,213.6c-156.3,0-283.5,127.2-283.5,283.5s127.2,283.5,283.5,283.5
					s283.5-127.2,283.5-283.5S654.9,213.6,498.6,213.6z M498.6,811.9c-84.1,0-163.1-32.7-222.6-92.2s-92.2-138.5-92.2-222.6
					S216.5,334,276,274.5s138.5-92.2,222.6-92.2s163.1,32.7,222.6,92.2s92.2,138.5,92.2,222.6s-32.7,163.1-92.2,222.6
					S582.7,811.9,498.6,811.9z"/>
				<path id="XMLID_2029_" class="st12" d="M498.6,213.3c-156.5,0-283.8,127.3-283.8,283.8s127.3,283.8,283.8,283.8
					s283.8-127.3,283.8-283.8C782.3,340.6,655.1,213.3,498.6,213.3z M498.6,811.7c-84,0-163-32.7-222.4-92.1
					C216.7,660.1,184,581.1,184,497.1s32.7-163,92.1-222.4s138.4-92.1,222.4-92.1s163,32.7,222.4,92.1S813,413.1,813,497.1
					s-32.7,163-92.1,222.4C661.6,778.9,582.6,811.7,498.6,811.7z"/>
				<path id="XMLID_2026_" class="st13" d="M498.6,213.1c-156.6,0-284,127.4-284,284s127.4,284,284,284s284-127.4,284-284
					S655.2,213.1,498.6,213.1z M498.6,811.4c-84,0-162.9-32.7-222.3-92.1C216.9,659.9,184.2,581,184.2,497s32.7-162.9,92.1-222.3
					s138.3-92.1,222.3-92.1s162.9,32.7,222.3,92.1C780.3,334.1,813,413,813,497s-32.7,162.9-92.1,222.3
					C661.5,778.7,582.6,811.4,498.6,811.4z"/>
				<path id="XMLID_2023_" class="st14" d="M498.6,212.9c-156.7,0-284.2,127.5-284.2,284.2s127.5,284.2,284.2,284.2
					s284.2-127.5,284.2-284.2C782.8,340.4,655.3,212.9,498.6,212.9z M498.6,811.2c-83.9,0-162.8-32.7-222.1-92s-92-138.2-92-222.1
					s32.7-162.8,92-222.1s138.2-92,222.1-92s162.8,32.7,222.1,92s92,138.2,92,222.1s-32.7,162.8-92,222.1S582.5,811.2,498.6,811.2z"
					/>
				<path id="XMLID_2020_" class="st15" d="M498.6,212.6c-156.9,0-284.5,127.6-284.5,284.5s127.6,284.5,284.5,284.5
					S783.1,654,783.1,497.1S655.4,212.6,498.6,212.6z M498.6,811c-83.8,0-162.7-32.6-221.9-91.9c-59.3-59.3-91.9-138.1-91.9-221.9
					s32.6-162.7,91.9-221.9c59.3-59.3,138.1-91.9,221.9-91.9s162.7,32.6,221.9,91.9c59.3,59.3,91.9,138.1,91.9,221.9
					s-32.6,162.7-91.9,221.9C661.2,778.3,582.4,811,498.6,811z"/>
				<path id="XMLID_2017_" class="st16" d="M498.6,212.4c-157,0-284.7,127.7-284.7,284.7s127.7,284.7,284.7,284.7
					s284.7-127.7,284.7-284.7C783.3,340.1,655.6,212.4,498.6,212.4z M498.6,810.7c-83.8,0-162.5-32.6-221.8-91.9
					c-59.2-59.2-91.9-138-91.9-221.8s32.6-162.5,91.9-221.8c59.2-59.2,138-91.9,221.8-91.9s162.5,32.6,221.8,91.9
					c59.2,59.2,91.9,138,91.9,221.8s-32.6,162.5-91.9,221.8C661.1,778.1,582.4,810.7,498.6,810.7z"/>
				<path id="XMLID_2014_" class="st17" d="M498.6,212.2c-157.1,0-284.9,127.8-284.9,284.9S341.5,782,498.6,782
					s284.9-127.8,284.9-284.9S655.7,212.2,498.6,212.2z M498.6,810.5c-83.7,0-162.4-32.6-221.6-91.8s-91.8-137.9-91.8-221.6
					s32.6-162.4,91.8-221.6s137.9-91.8,221.6-91.8s162.4,32.6,221.6,91.8S812,413.4,812,497.1s-32.6,162.4-91.8,221.6
					S582.3,810.5,498.6,810.5z"/>
				<path id="XMLID_2011_" class="st18" d="M498.6,211.9c-157.2,0-285.2,127.9-285.2,285.2c0,157.2,127.9,285.2,285.2,285.2
					c157.2,0,285.2-127.9,285.2-285.2C783.8,339.8,655.8,211.9,498.6,211.9z M498.6,810.3c-83.6,0-162.3-32.6-221.4-91.7
					c-59.1-59.1-91.7-137.8-91.7-221.4s32.6-162.3,91.7-221.4s137.8-91.7,221.4-91.7s162.3,32.6,221.4,91.7s91.7,137.8,91.7,221.4
					S779.1,659.5,720,718.6C660.9,777.7,582.2,810.3,498.6,810.3z"/>
				<path id="XMLID_2008_" class="st19" d="M498.6,211.7c-157.4,0-285.4,128-285.4,285.4s128,285.4,285.4,285.4S784,654.5,784,497.1
					S656,211.7,498.6,211.7z M498.6,810c-83.6,0-162.2-32.6-221.3-91.7c-59.1-59.1-91.7-137.7-91.7-221.3s32.6-162.2,91.7-221.3
					S415,184,498.6,184s162.2,32.6,221.3,91.7s91.7,137.7,91.7,221.3S779,659.2,719.9,718.3C660.8,777.5,582.2,810,498.6,810z"/>
				<path id="XMLID_2005_" class="st20" d="M498.6,211.5C341.1,211.5,213,339.6,213,497.1s128.1,285.6,285.6,285.6
					s285.6-128.1,285.6-285.6S656.1,211.5,498.6,211.5z M498.6,809.8c-83.5,0-162-32.5-221.1-91.6s-91.6-137.6-91.6-221.1
					s32.5-162,91.6-221.1s137.6-91.6,221.1-91.6s162,32.5,221.1,91.6c59.1,59.1,91.6,137.6,91.6,221.1s-32.5,162-91.6,221.1
					C660.6,777.3,582.1,809.8,498.6,809.8z"/>
				<path id="XMLID_2002_" class="st21" d="M498.6,211.2c-157.6,0-285.9,128.2-285.9,285.9C212.7,654.7,341,783,498.6,783
					s285.9-128.2,285.9-285.9C784.5,339.5,656.2,211.2,498.6,211.2z M498.6,809.6c-83.5,0-161.9-32.5-220.9-91.5
					s-91.5-137.5-91.5-220.9c0-83.5,32.5-161.9,91.5-220.9s137.5-91.5,220.9-91.5c83.5,0,161.9,32.5,220.9,91.5S811,413.8,811,497.2
					c0,83.5-32.5,161.9-91.5,220.9C660.5,777,582.1,809.6,498.6,809.6z"/>
				<path id="XMLID_1999_" class="st22" d="M498.6,211c-157.8,0-286.1,128.3-286.1,286.1s128.3,286.1,286.1,286.1
					s286.1-128.3,286.1-286.1S656.4,211,498.6,211z M498.6,809.3c-83.4,0-161.8-32.5-220.8-91.4c-59-59-91.4-137.4-91.4-220.8
					s32.5-161.8,91.4-220.8c59-59,137.4-91.4,220.8-91.4s161.8,32.5,220.8,91.4c59,59,91.4,137.4,91.4,220.8s-32.5,161.8-91.4,220.8
					C660.4,776.8,582,809.3,498.6,809.3z"/>
				<path id="XMLID_1996_" class="st23" d="M498.6,210.7c-157.9,0-286.3,128.5-286.3,286.3c0,157.9,128.5,286.3,286.3,286.3
					c157.9,0,286.3-128.5,286.3-286.3S656.5,210.7,498.6,210.7z M498.6,809.1c-83.3,0-161.7-32.5-220.6-91.4s-91.4-137.3-91.4-220.6
					s32.5-161.7,91.4-220.6s137.3-91.4,220.6-91.4s161.7,32.5,220.6,91.4s91.4,137.3,91.4,220.6s-32.5,161.7-91.4,220.6
					S581.9,809.1,498.6,809.1z"/>
				<path id="XMLID_1993_" class="st24" d="M498.6,210.5c-158,0-286.6,128.6-286.6,286.6s128.6,286.6,286.6,286.6
					s286.6-128.6,286.6-286.6S656.6,210.5,498.6,210.5z M498.6,808.8c-83.3,0-161.6-32.4-220.4-91.3
					c-58.9-58.9-91.3-137.2-91.3-220.4c0-83.3,32.4-161.6,91.3-220.4c58.9-58.9,137.2-91.3,220.4-91.3c83.3,0,161.6,32.4,220.4,91.3
					c58.9,58.9,91.3,137.2,91.3,220.4c0,83.3-32.4,161.6-91.3,220.4C660.2,776.4,581.9,808.8,498.6,808.8z"/>
				<path id="XMLID_1990_" class="st25" d="M498.6,210.3c-158.1,0-286.8,128.7-286.8,286.8s128.7,286.8,286.8,286.8
					s286.8-128.7,286.8-286.8C785.4,338.9,656.7,210.3,498.6,210.3z M498.6,808.6c-83.2,0-161.4-32.4-220.3-91.2
					c-58.8-58.8-91.2-137.1-91.2-220.3s32.4-161.4,91.2-220.3c58.8-58.8,137.1-91.2,220.3-91.2S660,218,718.9,276.8
					c58.8,58.8,91.2,137.1,91.2,220.3s-32.4,161.4-91.2,220.3C660,776.2,581.8,808.6,498.6,808.6z"/>
				<path id="XMLID_1987_" class="st26" d="M498.6,210c-158.3,0-287,128.8-287,287c0,158.3,128.8,287,287,287
					c158.3,0,287-128.8,287-287S656.9,210,498.6,210z M498.6,808.4c-83.1,0-161.3-32.4-220.1-91.2s-91.2-137-91.2-220.1
					s32.4-161.3,91.2-220.1s137-91.2,220.1-91.2s161.3,32.4,220.1,91.2s91.2,137,91.2,220.1s-32.4,161.3-91.2,220.1
					S581.7,808.4,498.6,808.4z"/>
				<path id="XMLID_1984_" class="st27" d="M498.6,209.8c-158.4,0-287.3,128.9-287.3,287.3s128.9,287.3,287.3,287.3
					s287.3-128.9,287.3-287.3S657,209.8,498.6,209.8z M498.6,808.1c-83.1,0-161.2-32.4-219.9-91.1c-58.7-58.7-91.1-136.9-91.1-219.9
					c0-83.1,32.4-161.2,91.1-219.9s136.9-91.1,219.9-91.1c83.1,0,161.2,32.4,219.9,91.1s91.1,136.9,91.1,219.9
					c0,83.1-32.4,161.2-91.1,219.9C659.8,775.8,581.7,808.1,498.6,808.1z"/>
				<path id="XMLID_1981_" class="st28" d="M498.6,209.6c-158.5,0-287.5,129-287.5,287.5s129,287.5,287.5,287.5
					s287.5-129,287.5-287.5S657.1,209.6,498.6,209.6z M498.6,807.9c-83,0-161.1-32.3-219.8-91s-91-136.8-91-219.8
					s32.3-161.1,91-219.8s136.8-91,219.8-91s161.1,32.3,219.8,91s91,136.8,91,219.8s-32.3,161.1-91,219.8
					C659.7,775.6,581.6,807.9,498.6,807.9z"/>
				<path id="XMLID_1978_" class="st29" d="M498.6,209.3c-158.7,0-287.8,129.1-287.8,287.8s129.1,287.8,287.8,287.8
					s287.8-129.1,287.8-287.8C786.3,338.4,657.3,209.3,498.6,209.3z M498.6,807.7c-83,0-161-32.3-219.6-91
					C220.3,658,188,580,188,497.1c0-83,32.3-161,91-219.6c58.7-58.7,136.7-91,219.6-91c83,0,161,32.3,219.6,91
					c58.7,58.7,91,136.7,91,219.6c0,83-32.3,161-91,219.6C659.5,775.4,581.5,807.7,498.6,807.7z"/>
				<path id="XMLID_1975_" class="st30" d="M498.6,209.1c-158.8,0-288,129.2-288,288s129.2,288,288,288s288-129.2,288-288
					S657.4,209.1,498.6,209.1z M498.6,807.4c-82.9,0-160.8-32.3-219.4-90.9c-58.6-58.6-90.9-136.6-90.9-219.4
					c0-82.9,32.3-160.8,90.9-219.4s136.6-90.9,219.4-90.9c82.9,0,160.8,32.3,219.4,90.9s90.9,136.6,90.9,219.4
					c0,82.9-32.3,160.8-90.9,219.4C659.4,775.2,581.5,807.4,498.6,807.4z"/>
				<path id="XMLID_1972_" class="st31" d="M498.6,208.9c-158.9,0-288.2,129.3-288.2,288.2s129.3,288.2,288.2,288.2
					S786.8,656,786.8,497.1C786.8,338.2,657.5,208.9,498.6,208.9z M498.6,807.2c-82.8,0-160.7-32.3-219.3-90.8
					c-58.6-58.6-90.8-136.4-90.8-219.3c0-82.8,32.3-160.7,90.8-219.3c58.6-58.6,136.4-90.8,219.3-90.8c82.8,0,160.7,32.3,219.3,90.8
					c58.6,58.6,90.8,136.4,90.8,219.3c0,82.8-32.3,160.7-90.8,219.3C659.3,774.9,581.4,807.2,498.6,807.2z"/>
				<path id="XMLID_1969_" class="st32" d="M498.6,208.6c-159.1,0-288.5,129.4-288.5,288.5s129.4,288.5,288.5,288.5
					s288.5-129.4,288.5-288.5S657.6,208.6,498.6,208.6z M498.6,807c-82.8,0-160.6-32.2-219.1-90.8c-58.5-58.5-90.8-136.3-90.8-219.1
					s32.2-160.6,90.8-219.1c58.5-58.5,136.3-90.8,219.1-90.8s160.6,32.2,219.1,90.8c58.5,58.5,90.8,136.3,90.8,219.1
					s-32.2,160.6-90.8,219.1C659.2,774.7,581.4,807,498.6,807z"/>
				<path id="XMLID_1966_" class="st33" d="M498.6,208.4c-159.2,0-288.7,129.5-288.7,288.7s129.5,288.7,288.7,288.7
					s288.7-129.5,288.7-288.7C787.3,337.9,657.8,208.4,498.6,208.4z M498.6,806.7c-82.7,0-160.5-32.2-218.9-90.7
					C221.2,657.6,189,579.8,189,497.1s32.2-160.5,90.7-218.9c58.5-58.5,136.2-90.7,218.9-90.7s160.5,32.2,218.9,90.7
					c58.5,58.5,90.7,136.2,90.7,218.9S776,657.6,717.5,716C659.1,774.5,581.3,806.7,498.6,806.7z"/>
				<path id="XMLID_1963_" class="st34" d="M498.6,208.2c-159.3,0-288.9,129.6-288.9,288.9S339.3,786,498.6,786
					s288.9-129.6,288.9-288.9S657.9,208.2,498.6,208.2z M498.6,806.5c-82.6,0-160.3-32.2-218.8-90.6
					c-58.4-58.4-90.6-136.1-90.6-218.8c0-82.6,32.2-160.3,90.6-218.8c58.4-58.4,136.1-90.6,218.8-90.6c82.6,0,160.3,32.2,218.8,90.6
					c58.4,58.4,90.6,136.1,90.6,218.8c0,82.6-32.2,160.3-90.6,218.8C658.9,774.3,581.2,806.5,498.6,806.5z"/>
				<path id="XMLID_1960_" class="st35" d="M498.6,207.9c-159.4,0-289.2,129.7-289.2,289.2s129.7,289.2,289.2,289.2
					c159.4,0,289.2-129.7,289.2-289.2S658,207.9,498.6,207.9z M498.6,806.3c-82.6,0-160.2-32.2-218.6-90.6
					c-58.4-58.4-90.6-136-90.6-218.6s32.2-160.2,90.6-218.6s136-90.6,218.6-90.6s160.2,32.2,218.6,90.6s90.6,136,90.6,218.6
					s-32.2,160.2-90.6,218.6C658.8,774.1,581.2,806.3,498.6,806.3z"/>
				<path id="XMLID_1957_" class="st36" d="M498.6,207.7c-159.6,0-289.4,129.8-289.4,289.4S339,786.5,498.6,786.5
					S788,656.7,788,497.1S658.2,207.7,498.6,207.7z M498.6,806c-82.5,0-160.1-32.1-218.4-90.5c-58.3-58.3-90.5-135.9-90.5-218.4
					s32.1-160.1,90.5-218.4c58.3-58.3,135.9-90.5,218.4-90.5s160.1,32.1,218.4,90.5c58.3,58.3,90.5,135.9,90.5,218.4
					S775.4,657.2,717,715.5C658.7,773.9,581.1,806,498.6,806z"/>
				<path id="XMLID_1954_" class="st37" d="M498.6,207.5C338.9,207.5,209,337.4,209,497.1s129.9,289.6,289.6,289.6
					s289.6-129.9,289.6-289.6S658.3,207.5,498.6,207.5z M498.6,805.8c-82.5,0-160-32.1-218.3-90.4c-58.3-58.3-90.4-135.8-90.4-218.3
					s32.1-160,90.4-218.3s135.8-90.4,218.3-90.4s160,32.1,218.3,90.4s90.4,135.8,90.4,218.3s-32.1,160-90.4,218.3
					C658.6,773.7,581,805.8,498.6,805.8z"/>
				<path id="XMLID_1951_" class="st38" d="M498.6,207.2c-159.8,0-289.9,130-289.9,289.9S338.8,787,498.6,787s289.9-130,289.9-289.9
					S658.4,207.2,498.6,207.2z M498.6,805.6c-82.4,0-159.9-32.1-218.1-90.3c-58.3-58.3-90.3-135.7-90.3-218.1s32.1-159.9,90.3-218.1
					c58.3-58.3,135.7-90.3,218.1-90.3s159.9,32.1,218.1,90.3C775,337.4,807,414.8,807,497.2s-32.1,159.9-90.3,218.1
					C658.4,773.5,581,805.6,498.6,805.6z"/>
				<path id="XMLID_1948_" class="st39" d="M498.6,207c-160,0-290.1,130.1-290.1,290.1s130.1,290.1,290.1,290.1
					s290.1-130.1,290.1-290.1S658.6,207,498.6,207z M498.6,805.3c-82.3,0-159.7-32.1-217.9-90.3s-90.3-135.6-90.3-217.9
					s32.1-159.7,90.3-217.9s135.6-90.3,217.9-90.3s159.7,32.1,217.9,90.3s90.3,135.6,90.3,217.9S774.7,656.8,716.5,715
					C658.3,773.3,580.9,805.3,498.6,805.3z"/>
				<path id="XMLID_1945_" class="st40" d="M498.6,206.7c-160.1,0-290.3,130.2-290.3,290.3s130.2,290.3,290.3,290.3
					S788.9,657.1,788.9,497S658.7,206.7,498.6,206.7z M498.6,805.1c-82.3,0-159.6-32-217.8-90.2s-90.2-135.5-90.2-217.8
					s32-159.6,90.2-217.8s135.5-90.2,217.8-90.2s159.6,32,217.8,90.2s90.2,135.5,90.2,217.8s-32,159.6-90.2,217.8
					C658.2,773,580.9,805.1,498.6,805.1z"/>
				<path id="XMLID_1942_" class="st41" d="M498.6,206.5C338.4,206.5,208,336.9,208,497.1s130.4,290.6,290.6,290.6
					s290.6-130.4,290.6-290.6S658.8,206.5,498.6,206.5z M498.6,804.8c-82.2,0-159.5-32-217.6-90.1s-90.1-135.4-90.1-217.6
					s32-159.5,90.1-217.6s135.4-90.1,217.6-90.1s159.5,32,217.6,90.1c58.1,58.1,90.1,135.4,90.1,217.6s-32,159.5-90.1,217.6
					C658.1,772.8,580.8,804.8,498.6,804.8z"/>
				<path id="XMLID_1939_" class="st42" d="M498.6,206.3c-160.4,0-290.8,130.5-290.8,290.8s130.5,290.8,290.8,290.8
					s290.8-130.5,290.8-290.8S658.9,206.3,498.6,206.3z M498.6,804.6c-82.1,0-159.4-32-217.4-90.1c-58.1-58.1-90.1-135.3-90.1-217.4
					s32-159.4,90.1-217.4c58.1-58.1,135.3-90.1,217.4-90.1s159.4,32,217.4,90.1c58.1,58.1,90.1,135.3,90.1,217.4
					s-32,159.4-90.1,217.4C658,772.6,580.7,804.6,498.6,804.6z"/>
				<path id="XMLID_1936_" class="st43" d="M498.6,206c-160.5,0-291,130.6-291,291s130.6,291,291,291s291-130.6,291-291
					S659.1,206,498.6,206z M498.6,804.4c-82.1,0-159.2-32-217.3-90c-58-58-90-135.2-90-217.3s32-159.2,90-217.3
					c58-58,135.2-90,217.3-90s159.2,32,217.3,90c58,58,90,135.2,90,217.3s-32,159.2-90,217.3C657.8,772.4,580.7,804.4,498.6,804.4z"
					/>
				<path id="XMLID_1933_" class="st44" d="M498.6,205.8c-160.6,0-291.3,130.7-291.3,291.3S338,788.4,498.6,788.4
					s291.3-130.7,291.3-291.3S659.2,205.8,498.6,205.8z M498.6,804.1c-82,0-159.1-31.9-217.1-89.9s-89.9-135.1-89.9-217.1
					S223.5,338,281.5,280s135.1-89.9,217.1-89.9S657.7,222,715.7,280s89.9,135.1,89.9,217.1s-31.9,159.1-89.9,217.1
					C657.7,772.2,580.6,804.1,498.6,804.1z"/>
				<path id="XMLID_1930_" class="st45" d="M498.6,205.6c-160.7,0-291.5,130.8-291.5,291.5s130.8,291.5,291.5,291.5
					s291.5-130.8,291.5-291.5S659.3,205.6,498.6,205.6z M498.6,803.9c-82,0-159-31.9-217-89.9c-57.9-57.9-89.9-135-89.9-217
					s31.9-159,89.9-217c57.9-57.9,135-89.9,217-89.9s159,31.9,217,89.9c57.9,57.9,89.9,135,89.9,217s-31.9,159-89.9,217
					S580.5,803.9,498.6,803.9z"/>
				<path id="XMLID_1927_" class="st46" d="M498.6,205.3c-160.9,0-291.8,130.9-291.8,291.8s130.9,291.8,291.8,291.8
					S790.3,658,790.3,497.1S659.5,205.3,498.6,205.3z M498.6,803.7c-81.9,0-158.9-31.9-216.8-89.8C223.9,656,192,579,192,497.1
					s31.9-158.9,89.8-216.8s134.9-89.8,216.8-89.8s158.9,31.9,216.8,89.8c57.9,57.9,89.8,134.9,89.8,216.8S773.3,656,715.4,713.9
					C657.5,771.8,580.5,803.7,498.6,803.7z"/>
				<path id="XMLID_1924_" class="st47" d="M498.6,205.1c-161,0-292,131-292,292s131,292,292,292s292-131,292-292
					S659.6,205.1,498.6,205.1z M498.6,803.4c-81.8,0-158.8-31.9-216.6-89.7c-57.9-57.9-89.7-134.8-89.7-216.6s31.9-158.8,89.7-216.6
					c57.9-57.9,134.8-89.7,216.6-89.7s158.8,31.9,216.6,89.7c57.9,57.9,89.7,134.8,89.7,216.6S773,655.9,715.2,713.7
					C657.3,771.6,580.4,803.4,498.6,803.4z"/>
				<path id="XMLID_1921_" class="st48" d="M498.6,204.9c-161.1,0-292.2,131.1-292.2,292.2s131.1,292.2,292.2,292.2
					s292.2-131.1,292.2-292.2S659.7,204.9,498.6,204.9z M498.6,803.2c-81.8,0-158.6-31.8-216.5-89.7
					c-57.8-57.8-89.7-134.7-89.7-216.5s31.8-158.6,89.7-216.5C340,222.8,416.8,191,498.6,191s158.6,31.8,216.5,89.7
					c57.8,57.8,89.7,134.7,89.7,216.5S773,655.8,715.1,713.7C657.2,771.4,580.4,803.2,498.6,803.2z"/>
				<path id="XMLID_1918_" class="st49" d="M498.6,204.6c-161.3,0-292.5,131.2-292.5,292.5s131.2,292.5,292.5,292.5
					s292.5-131.2,292.5-292.5S659.9,204.6,498.6,204.6z M498.6,803c-81.7,0-158.5-31.8-216.3-89.6s-89.6-134.6-89.6-216.3
					s31.8-158.5,89.6-216.3s134.6-89.6,216.3-89.6s158.5,31.8,216.3,89.6s89.6,134.6,89.6,216.3s-31.8,158.5-89.6,216.3
					C657.1,771.1,580.3,803,498.6,803z"/>
				<path id="XMLID_1915_" class="st50" d="M498.6,204.4c-161.4,0-292.7,131.3-292.7,292.7s131.3,292.7,292.7,292.7
					s292.7-131.3,292.7-292.7S660,204.4,498.6,204.4z M498.6,802.7c-81.6,0-158.4-31.8-216.1-89.5C224.7,655.5,193,578.7,193,497.1
					s31.8-158.4,89.5-216.1s134.5-89.5,216.1-89.5S657,223.3,714.7,281s89.5,134.5,89.5,216.1s-31.8,158.4-89.5,216.1
					S580.2,802.7,498.6,802.7z"/>
				<path id="XMLID_1912_" class="st51" d="M498.6,204.2c-161.5,0-292.9,131.4-292.9,292.9S337.1,790,498.6,790
					s292.9-131.4,292.9-292.9S660.1,204.2,498.6,204.2z M498.6,802.5c-81.6,0-158.3-31.8-216-89.4c-57.7-57.7-89.5-134.4-89.5-216
					s31.8-158.3,89.5-216s134.4-89.5,216-89.5s158.3,31.8,216,89.5c57.7,57.7,89.4,134.4,89.4,216s-31.8,158.3-89.4,216
					C656.9,770.7,580.2,802.5,498.6,802.5z"/>
				<path id="XMLID_1909_" d="M498.6,203.9c-161.7,0-293.2,131.5-293.2,293.2s131.5,293.2,293.2,293.2s293.2-131.5,293.2-293.2
					S660.2,203.9,498.6,203.9z M498.6,802.3c-81.5,0-158.1-31.7-215.8-89.4c-57.6-57.6-89.4-134.3-89.4-215.8s31.7-158.1,89.4-215.8
					c57.6-57.6,134.3-89.4,215.8-89.4s158.1,31.7,215.8,89.4c57.6,57.6,89.4,134.3,89.4,215.8s-31.7,158.1-89.4,215.8
					C656.7,770.5,580.1,802.3,498.6,802.3z"/>
			</g>
		</g>
	</g>
</g>
</svg>
